<svg xmlns="http://www.w3.org/2000/svg" viewBox="0 0 534 344" width="534" height="344" fill="none">
  <path d="M -1.00,172.00 L -1.00,-1.00 L 267.00,-1.00 L 535.00,-1.00 L 535.00,172.00 L 535.00,345.00 L 267.00,345.00 L -1.00,345.00 L -1.00,172.00 Z M 92.93,343.02 C 96.75,341.93 101.47,337.86 103.55,333.88 C 105.57,330.01 104.09,329.56 101.60,333.29 C 97.27,339.77 88.90,341.75 82.90,337.71 C 79.33,335.31 77.75,331.85 76.59,323.89 L 75.92,319.27 L 79.64,318.67 C 81.69,318.34 88.23,318.35 94.18,318.69 L 105.00,319.31 L 104.99,316.90 C 104.96,301.75 88.13,293.57 74.42,302.05 C 64.55,308.15 61.49,323.96 68.10,334.66 C 72.82,342.30 83.23,345.80 92.93,343.02 Z M 138.50,342.10 C 146.81,338.26 151.25,330.61 151.19,320.24 C 151.14,312.53 148.31,306.10 143.28,302.26 C 138.03,298.26 128.93,297.85 123.75,301.38 L 120.00,303.94 L 120.00,290.47 L 120.00,277.00 L 111.56,277.00 C 103.03,277.00 99.53,278.26 105.02,279.35 L 108.00,279.95 L 108.00,310.92 C 108.00,328.03 108.40,342.13 108.89,342.43 C 109.39,342.74 111.42,342.30 113.42,341.47 C 116.27,340.28 117.51,340.20 119.21,341.11 C 125.32,344.38 132.75,344.77 138.50,342.10 Z M 170.68,342.93 C 172.23,342.35 174.47,340.96 175.66,339.85 C 177.77,337.87 177.82,337.86 178.42,339.76 C 179.86,344.29 188.68,345.41 192.55,341.55 C 195.42,338.67 195.98,335.80 193.17,338.35 C 189.41,341.75 189.00,340.60 188.99,326.75 C 188.98,310.17 188.39,306.63 185.08,303.09 C 179.25,296.84 164.72,297.08 158.27,303.53 C 156.47,305.33 155.00,307.60 155.00,308.57 C 155.00,311.12 157.94,314.00 160.53,314.00 C 163.77,314.00 165.42,311.41 165.14,306.76 C 164.87,302.21 165.95,301.04 170.42,301.02 C 175.41,300.99 177.00,303.40 177.00,311.00 L 177.00,317.69 L 169.43,319.35 C 165.27,320.27 160.59,321.68 159.02,322.49 C 147.31,328.55 151.33,343.80 164.68,343.96 C 166.44,343.98 169.14,343.52 170.68,342.93 Z M 213.99,342.51 C 217.14,340.88 220.00,337.37 220.00,335.14 C 220.00,334.32 219.14,334.83 217.93,336.37 C 215.08,339.98 210.34,340.02 208.98,336.43 C 207.90,333.60 207.64,310.07 208.62,305.12 C 209.22,302.14 209.47,302.00 214.12,302.00 C 220.58,302.00 220.35,300.37 213.75,299.32 L 208.50,298.49 L 208.00,291.58 L 207.50,284.67 L 201.98,291.58 C 198.94,295.39 195.46,298.94 194.23,299.49 C 191.27,300.80 191.40,302.00 194.50,302.00 L 197.00,302.00 L 197.00,318.35 C 197.00,327.72 197.47,336.06 198.11,337.87 C 200.04,343.43 207.82,345.70 213.99,342.51 Z M 249.54,342.12 C 254.30,339.96 259.01,334.75 258.98,331.67 C 258.96,329.55 258.91,329.56 257.00,332.00 C 255.92,333.38 255.03,334.83 255.02,335.23 C 254.98,336.48 247.22,340.00 244.51,340.00 C 236.81,340.00 232.06,334.39 231.20,324.28 L 230.76,319.06 L 245.13,318.78 L 259.50,318.50 L 259.27,314.68 C 258.96,309.48 257.20,306.24 252.69,302.62 C 249.46,300.02 247.86,299.50 242.11,299.18 C 232.23,298.62 226.00,302.18 221.42,311.00 C 219.02,315.61 218.90,328.20 221.21,332.50 C 226.51,342.36 239.39,346.73 249.54,342.12 Z M 375.87,342.57 C 377.40,341.78 379.19,340.48 379.85,339.67 C 380.89,338.43 381.48,338.64 383.96,341.11 C 386.02,343.18 387.83,344.00 390.29,344.00 C 393.99,344.00 399.00,340.80 399.00,338.43 C 399.00,336.54 397.37,336.59 396.64,338.50 C 396.32,339.32 395.37,340.00 394.53,340.00 C 393.22,340.00 393.00,337.78 393.00,324.75 C 393.00,307.48 392.02,304.02 386.16,300.64 C 381.87,298.16 370.85,297.92 366.50,300.21 C 360.36,303.45 357.95,308.82 361.00,312.50 C 364.33,316.51 370.69,312.42 369.51,307.03 C 369.08,305.10 369.28,303.36 370.03,302.46 C 371.33,300.89 376.68,300.51 378.77,301.84 C 381.30,303.44 383.26,316.10 381.18,317.39 C 380.72,317.67 377.08,318.58 373.07,319.42 C 364.02,321.31 360.06,323.55 357.52,328.25 C 355.67,331.65 355.64,332.22 357.02,336.21 C 358.12,339.39 359.40,340.95 362.00,342.25 C 366.25,344.37 372.12,344.50 375.87,342.57 Z M 423.96,342.40 C 430.98,339.59 434.09,330.95 430.55,324.10 C 428.79,320.69 425.78,318.64 418.62,315.96 C 411.35,313.24 408.00,310.49 408.00,307.26 C 408.00,297.68 422.53,299.51 426.15,309.55 C 428.03,314.73 429.00,313.73 429.00,306.63 L 429.00,300.26 L 422.75,299.41 C 415.00,298.36 410.49,298.70 406.78,300.61 C 403.02,302.56 400.01,307.62 400.01,312.00 C 400.01,318.92 403.64,322.27 417.25,327.92 C 420.49,329.26 422.33,330.74 423.01,332.54 C 424.53,336.53 422.35,340.29 417.87,341.39 C 412.52,342.72 407.22,339.83 403.96,333.80 C 402.57,331.21 401.11,328.77 400.71,328.38 C 400.32,327.99 400.00,331.11 400.00,335.31 L 400.00,342.95 L 402.75,342.41 C 404.26,342.11 406.62,342.32 408.00,342.87 C 411.83,344.41 419.51,344.18 423.96,342.40 Z M 453.45,342.58 C 456.74,341.21 460.84,336.50 459.72,335.39 C 459.42,335.08 458.23,335.77 457.08,336.92 C 454.45,339.55 450.40,339.62 449.04,337.07 C 448.44,335.96 448.00,328.07 448.00,318.57 L 448.00,302.00 L 453.50,302.00 C 456.52,302.00 459.00,301.60 459.00,301.11 C 459.00,299.76 454.12,298.81 450.87,299.53 L 448.00,300.16 L 448.00,292.58 C 448.00,288.41 447.59,285.00 447.09,285.00 C 446.60,285.00 443.87,288.13 441.04,291.95 C 438.20,295.77 435.01,299.18 433.94,299.52 C 431.18,300.40 431.54,302.00 434.50,302.00 L 437.00,302.00 L 437.00,319.78 C 437.00,334.49 437.28,337.95 438.61,339.85 C 441.51,344.00 447.45,345.09 453.45,342.58 Z M 487.10,342.86 C 491.04,341.55 495.58,337.64 497.55,333.88 C 499.57,330.01 498.09,329.56 495.60,333.29 C 492.69,337.66 487.48,340.22 482.71,339.64 C 475.15,338.72 471.80,334.49 470.43,324.17 L 469.74,319.00 L 476.12,318.79 C 479.63,318.68 486.10,318.56 490.50,318.54 L 498.50,318.50 L 498.42,314.30 C 498.17,301.45 481.91,294.17 469.60,301.39 C 459.05,307.57 455.42,322.24 461.53,334.05 C 465.54,341.80 477.71,346.00 487.10,342.86 Z M 46.33,339.16 C 58.29,333.27 63.57,323.32 62.79,308.14 C 62.28,298.09 59.44,291.35 53.54,286.17 C 45.32,278.95 37.39,277.05 15.31,277.02 C 2.73,277.00 -2.41,278.07 4.03,279.36 C 8.91,280.33 9.25,282.65 8.77,311.69 C 8.32,339.60 8.06,341.00 3.38,341.00 C 2.07,341.00 1.00,341.49 1.00,342.09 C 1.00,342.86 6.80,343.08 20.27,342.84 L 39.55,342.50 L 46.33,339.16 Z M 299.00,342.00 C 299.00,341.45 298.18,341.00 297.19,341.00 C 296.19,341.00 294.39,340.08 293.19,338.96 C 291.05,336.96 291.00,336.40 291.06,311.71 L 291.12,286.50 L 296.64,300.50 C 299.68,308.20 304.66,320.93 307.72,328.79 C 310.85,336.83 313.77,342.92 314.39,342.71 C 315.58,342.33 319.88,331.77 330.08,304.12 L 336.50,286.74 L 336.77,311.90 C 336.94,328.12 336.66,337.77 335.98,339.03 C 335.37,340.17 333.89,341.00 332.46,341.00 C 331.11,341.00 330.00,341.45 330.00,342.00 C 330.00,342.62 335.17,343.00 343.50,343.00 C 351.83,343.00 357.00,342.62 357.00,342.00 C 357.00,341.45 355.99,340.99 354.75,340.98 C 349.57,340.95 349.51,340.70 349.31,316.77 C 349.21,304.51 349.43,291.37 349.81,287.57 C 350.48,280.88 350.60,280.64 353.81,279.56 C 358.94,277.84 356.52,277.00 346.42,277.00 L 337.18,277.00 L 334.18,285.75 C 332.53,290.56 328.56,301.40 325.34,309.82 L 319.50,325.15 L 317.35,320.25 C 316.16,317.56 313.31,310.03 311.01,303.52 C 308.70,297.01 305.54,288.50 303.97,284.59 L 301.13,277.50 L 291.89,277.21 C 280.87,276.86 277.68,277.70 283.50,279.40 L 287.50,280.56 L 287.78,309.03 C 288.05,337.06 288.02,337.53 285.91,339.25 C 284.74,340.21 282.93,341.00 281.89,341.00 C 280.85,341.00 280.00,341.45 280.00,342.00 C 280.00,342.60 283.83,343.00 289.50,343.00 C 295.17,343.00 299.00,342.60 299.00,342.00 Z M 521.50,342.00 C 521.16,341.45 520.06,341.00 519.06,341.00 C 515.31,341.00 514.80,338.71 515.16,323.61 C 515.48,309.93 515.63,309.02 517.92,306.58 C 521.01,303.29 524.00,303.16 524.00,306.30 C 524.00,309.32 525.79,311.00 529.00,311.00 C 535.98,311.00 535.84,301.19 528.82,298.71 C 525.95,297.70 520.24,299.92 517.56,303.11 L 515.00,306.15 L 515.00,302.43 L 515.00,298.72 L 508.85,299.36 C 505.47,299.71 501.62,300.00 500.29,300.00 C 498.94,300.00 498.15,300.44 498.50,301.00 C 498.84,301.55 499.94,302.00 500.95,302.00 C 501.96,302.00 503.06,302.71 503.39,303.58 C 503.73,304.45 504.00,312.69 504.00,321.88 C 504.00,339.16 503.60,341.00 499.80,341.00 C 498.81,341.00 498.00,341.45 498.00,342.00 C 498.00,342.61 502.69,343.00 510.06,343.00 C 517.84,343.00 521.90,342.65 521.50,342.00 Z M 22.25,340.34 C 21.29,339.95 21.00,332.91 21.00,309.92 L 21.00,280.00 L 27.04,280.00 C 40.49,280.00 47.67,288.15 49.50,305.50 C 50.77,317.64 46.42,332.44 40.28,336.80 C 35.62,340.11 26.25,341.95 22.25,340.34 Z M 122.22,339.44 C 120.09,337.95 120.00,337.26 120.00,322.62 C 120.00,308.07 120.11,307.25 122.25,305.25 C 126.78,301.02 132.09,301.46 136.15,306.40 C 141.30,312.66 140.53,332.62 134.92,338.23 C 131.71,341.45 125.87,342.00 122.22,339.44 Z M 165.65,338.17 C 164.63,337.04 164.00,334.63 164.00,331.86 C 164.00,328.25 164.54,326.88 166.75,324.82 C 168.93,322.80 174.68,320.00 176.65,320.00 C 176.84,320.00 177.00,323.40 177.00,327.55 C 177.00,334.22 176.72,335.37 174.55,337.55 C 171.64,340.45 167.96,340.71 165.65,338.17 Z M 369.56,337.78 C 367.53,334.88 367.57,329.06 369.63,326.11 C 371.23,323.83 378.17,320.07 380.86,320.02 C 381.92,320.00 382.14,321.64 381.84,327.44 C 381.53,333.61 381.06,335.31 379.06,337.44 C 376.01,340.68 371.70,340.84 369.56,337.78 Z M 77.02,313.75 C 77.06,308.67 80.43,302.18 83.44,301.43 C 87.97,300.29 90.65,301.66 92.39,306.01 C 93.27,308.23 94.00,311.33 94.00,312.90 C 94.00,315.29 93.50,315.85 90.88,316.38 C 89.16,316.72 85.33,317.00 82.38,317.00 L 77.00,317.00 L 77.02,313.75 Z M 232.75,316.31 C 231.79,316.06 231.00,315.32 231.01,314.68 C 231.02,311.65 233.40,305.28 235.27,303.25 C 237.88,300.42 243.01,300.25 245.42,302.91 C 247.06,304.72 249.23,315.44 248.17,316.50 C 247.56,317.11 235.21,316.95 232.75,316.31 Z M 471.32,316.22 C 469.51,315.07 471.66,306.66 474.58,303.51 C 479.67,298.01 486.70,302.14 487.72,311.23 L 488.23,315.69 L 482.86,316.34 C 475.89,317.18 472.77,317.14 471.32,316.22 Z M 260.80,251.20 L 264.10,250.50 L 260.30,245.46 C 258.21,242.69 255.15,238.75 253.50,236.71 L 250.50,233.00 L 195.00,233.01 L 139.50,233.01 L 133.75,240.46 C 127.70,248.29 126.87,250.56 129.75,251.31 C 132.62,252.07 257.22,251.96 260.80,251.20 Z M 409.78,249.50 C 409.94,248.32 407.86,244.63 404.69,240.50 L 399.34,233.50 L 342.70,233.24 L 286.07,232.98 L 279.51,241.67 C 274.73,248.01 273.30,250.58 274.23,251.17 C 274.93,251.61 305.65,251.87 342.50,251.74 C 408.65,251.50 409.50,251.47 409.78,249.50 Z M 245.00,228.15 C 245.00,227.69 242.33,224.76 239.07,221.65 L 233.15,216.00 L 196.54,216.00 C 167.81,216.00 159.23,216.29 156.66,217.37 C 153.60,218.65 146.00,226.35 146.00,228.18 C 146.00,228.63 168.27,229.00 195.50,229.00 C 222.73,229.00 245.00,228.62 245.00,228.15 Z M 391.08,226.12 C 387.73,221.41 382.27,217.14 378.77,216.50 C 376.97,216.17 359.19,216.03 339.26,216.20 L 303.02,216.50 L 296.77,222.75 L 290.52,229.00 L 341.83,229.00 L 393.14,229.00 L 391.08,226.12 Z M 201.05,156.38 L 200.92,100.26 L 209.21,97.68 C 213.77,96.27 219.53,94.55 222.00,93.86 C 225.16,92.99 228.84,90.53 234.39,85.58 L 242.27,78.54 L 238.39,77.72 C 232.98,76.58 231.76,76.87 193.00,88.46 C 174.03,94.13 155.68,99.56 152.22,100.53 C 148.77,101.49 146.22,102.55 146.55,102.89 C 146.88,103.23 150.83,104.64 155.33,106.03 L 163.50,108.56 L 163.75,159.53 C 163.89,187.56 164.21,211.07 164.48,211.77 C 164.84,212.75 169.12,212.98 183.06,212.77 L 201.17,212.50 L 201.05,156.38 Z M 372.74,167.50 C 372.86,142.75 372.98,119.51 372.99,115.86 L 373.00,109.22 L 376.75,107.74 C 378.81,106.93 382.86,105.67 385.75,104.94 C 391.42,103.52 392.30,102.50 388.75,101.49 C 387.51,101.14 381.55,99.36 375.50,97.54 C 369.45,95.72 353.93,91.19 341.00,87.47 C 328.07,83.76 314.95,79.91 311.82,78.92 C 307.78,77.65 304.51,77.30 300.49,77.71 L 294.84,78.30 L 302.15,85.65 C 306.16,89.69 310.05,93.00 310.79,93.00 C 312.95,93.00 330.25,98.12 333.25,99.65 L 336.00,101.05 L 336.00,157.05 L 336.00,213.05 L 354.25,212.77 L 372.50,212.50 L 372.74,167.50 Z M 165.00,93.97 C 175.72,90.84 194.62,85.32 207.00,81.72 C 221.92,77.37 232.19,74.93 237.50,74.49 C 241.90,74.13 245.60,73.73 245.73,73.61 C 245.95,73.38 241.56,67.27 233.98,57.25 C 231.80,54.36 229.45,52.00 228.76,52.00 C 228.06,52.00 222.32,53.61 216.00,55.57 C 188.66,64.04 171.38,69.36 142.50,78.20 L 131.50,81.56 L 131.00,86.03 C 130.72,88.49 130.72,92.30 131.00,94.50 C 131.47,98.28 131.75,98.56 136.00,99.65 C 141.31,101.00 140.24,101.21 165.00,93.97 Z M 402.32,99.41 L 407.00,97.81 L 407.00,89.94 L 407.00,82.07 L 395.75,78.57 C 347.62,63.60 309.23,52.00 307.84,52.00 C 306.93,52.00 304.46,54.36 302.36,57.25 C 294.51,68.02 290.91,73.24 291.20,73.44 C 291.36,73.56 295.77,74.16 301.00,74.77 C 307.75,75.56 322.94,79.50 353.50,88.38 C 377.15,95.26 396.76,100.91 397.07,100.94 C 397.39,100.97 399.75,100.28 402.32,99.41 Z M 174.98,66.00 C 175.43,66.00 176.35,63.64 177.02,60.75 C 179.28,51.06 181.69,48.37 201.30,33.68 C 212.91,24.98 214.34,24.18 216.69,25.07 C 222.57,27.31 230.00,21.84 230.00,15.29 C 230.00,11.00 225.44,6.00 221.53,6.00 C 215.44,6.00 208.98,12.86 210.39,17.82 C 210.73,19.05 206.56,22.82 194.90,31.81 C 177.77,45.03 174.94,48.30 172.49,57.71 C 170.53,65.22 170.55,67.39 172.58,66.61 C 173.45,66.27 174.53,66.00 174.98,66.00 Z M 366.00,63.13 C 366.00,58.52 363.76,51.78 360.71,47.18 C 359.49,45.36 353.77,40.21 348.00,35.74 C 329.63,21.53 328.00,19.93 328.00,16.15 C 328.00,11.89 322.52,6.00 318.55,6.00 C 314.55,6.00 310.43,8.55 309.05,11.88 C 305.99,19.26 314.05,27.83 321.42,25.03 C 323.80,24.12 324.69,24.45 328.92,27.75 C 331.56,29.81 338.20,34.99 343.68,39.26 C 349.16,43.53 354.58,48.29 355.72,49.84 C 357.99,52.91 361.00,60.95 361.00,63.96 C 361.00,65.60 362.18,66.41 365.25,66.88 C 365.66,66.95 366.00,65.26 366.00,63.13 Z" fill="#1c1a19" />
  <path d="M -1.00,172.00 L -1.00,-1.00 L 267.00,-1.00 L 535.00,-1.00 L 535.00,172.00 L 535.00,345.00 L 267.00,345.00 L -1.00,345.00 L -1.00,172.00 Z M 274.97,217.50 C 277.86,205.95 284.15,184.63 288.96,170.11 L 297.71,143.73 L 295.79,137.61 C 294.74,134.25 291.01,120.03 287.51,106.00 C 279.16,72.52 274.04,45.61 270.41,16.15 C 269.45,8.36 268.48,2.18 268.26,2.41 C 268.03,2.63 266.76,11.07 265.43,21.16 C 260.41,59.26 253.47,93.27 243.49,128.69 L 239.21,143.89 L 242.50,153.19 C 250.17,174.85 263.53,220.79 265.57,232.50 C 266.43,237.44 267.93,240.50 268.95,239.36 C 269.37,238.89 272.08,229.05 274.97,217.50 Z M 224.00,153.50 C 224.00,120.77 223.78,94.00 223.52,94.00 C 222.55,94.00 205.82,99.00 204.92,99.55 C 204.38,99.88 204.00,123.33 204.00,156.56 L 204.00,213.00 L 214.00,213.00 L 224.00,213.00 L 224.00,153.50 Z M 332.49,206.75 C 332.85,203.31 333.00,177.79 332.82,150.04 L 332.50,99.58 L 325.15,97.35 C 321.11,96.12 316.50,94.83 314.90,94.48 L 312.00,93.84 L 312.00,153.42 L 312.00,213.00 L 321.92,213.00 L 331.84,213.00 L 332.49,206.75 Z M 268.12,183.00 C 267.61,149.52 267.72,150.47 264.12,147.11 C 260.47,143.71 260.21,141.28 263.07,137.63 C 264.56,135.75 266.07,135.00 268.42,135.00 C 276.31,135.00 278.09,145.81 270.61,148.30 C 269.85,148.55 269.33,157.34 268.97,176.08 L 268.44,203.50 L 268.12,183.00 Z" fill="#b88d4c" />
</svg>